<svg width="1024" height="1024" viewBox="0 0 1024 1024" fill="none" xmlns="http://www.w3.org/2000/svg">
<rect width="1024" height="1024" fill="white"/>
<rect x="299" y="412" width="424" height="496" rx="50" fill="#094D85"/>
<rect x="363" y="476" width="296" height="100" rx="16" fill="#2286B9"/>
<path d="M411.768 548.656C410.616 548.656 409.644 548.368 408.852 547.792C408.06 547.24 407.664 546.244 407.664 544.804C407.664 544.42 407.664 543.964 407.664 543.436C407.688 542.908 407.7 542.368 407.7 541.816C407.7 541.24 407.7 540.676 407.7 540.124C407.7 539.572 407.688 539.08 407.664 538.648C407.568 537.568 407.256 536.8 406.728 536.344C406.224 535.864 405.108 535.588 403.38 535.516C401.676 535.468 399.972 535.396 398.268 535.3C396.588 535.18 395.124 534.988 393.876 534.724C392.676 534.484 391.728 533.98 391.032 533.212C390.36 532.42 389.868 531.424 389.556 530.224C389.268 529.024 389.124 527.704 389.124 526.264C389.124 525.16 389.232 523.924 389.448 522.556C389.664 521.164 389.94 519.748 390.276 518.308C390.612 516.868 390.96 515.488 391.32 514.168C391.704 512.848 392.064 511.696 392.4 510.712C392.808 509.464 393.252 508.372 393.732 507.436C394.236 506.5 394.824 505.768 395.496 505.24C396.168 504.688 396.984 504.412 397.944 504.412C398.544 504.412 399.06 504.52 399.492 504.736C399.924 504.928 400.248 505.24 400.464 505.672C400.68 506.08 400.788 506.632 400.788 507.328C400.788 508 400.692 508.816 400.5 509.776C400.332 510.736 400.116 511.78 399.852 512.908C399.588 514.012 399.312 515.152 399.024 516.328C398.76 517.504 398.532 518.668 398.34 519.82C398.172 520.972 398.088 522.076 398.088 523.132C398.088 524.116 398.148 524.908 398.268 525.508C398.388 526.084 398.604 526.516 398.916 526.804C399.228 527.092 399.648 527.32 400.176 527.488C400.824 527.68 401.676 527.812 402.732 527.884C403.788 527.932 404.82 527.956 405.828 527.956C406.932 527.956 407.688 527.764 408.096 527.38C408.528 526.996 408.744 526.276 408.744 525.22C408.744 524.836 408.756 524.236 408.78 523.42C408.804 522.604 408.84 521.656 408.888 520.576C408.936 519.472 408.984 518.32 409.032 517.12C409.104 515.896 409.164 514.708 409.212 513.556C409.284 512.404 409.344 511.36 409.392 510.424C409.464 509.488 409.512 508.756 409.536 508.228C409.728 506.812 410.112 505.612 410.688 504.628C411.264 503.62 412.116 503.116 413.244 503.116C414.036 503.116 414.684 503.284 415.188 503.62C415.692 503.932 416.1 504.472 416.412 505.24C416.724 506.008 416.952 507.088 417.096 508.48C417.144 509.008 417.192 509.68 417.24 510.496C417.288 511.288 417.312 512.176 417.312 513.16C417.312 514.12 417.312 515.152 417.312 516.256C417.336 517.36 417.336 518.488 417.312 519.64C417.312 520.792 417.312 521.956 417.312 523.132C417.312 524.284 417.312 525.412 417.312 526.516C417.312 527.14 417.444 527.596 417.708 527.884C417.996 528.172 418.428 528.316 419.004 528.316C419.724 528.316 420.408 528.292 421.056 528.244C421.728 528.196 422.34 528.22 422.892 528.316C423.54 528.484 424.056 528.76 424.44 529.144C424.824 529.504 425.016 530.14 425.016 531.052C425.016 532.348 424.74 533.224 424.188 533.68C423.66 534.112 422.94 534.412 422.028 534.58C421.5 534.628 420.876 534.724 420.156 534.868C419.46 534.988 418.836 535.108 418.284 535.228C417.66 535.348 417.228 535.636 416.988 536.092C416.772 536.524 416.628 537.268 416.556 538.324C416.484 538.996 416.412 539.752 416.34 540.592C416.292 541.408 416.232 542.212 416.16 543.004C416.088 543.796 415.992 544.48 415.872 545.056C415.608 546.28 415.14 547.18 414.468 547.756C413.82 548.356 412.92 548.656 411.768 548.656ZM434.451 548.08C432.939 548.08 431.655 547.816 430.599 547.288C429.543 546.76 428.739 546.076 428.187 545.236C427.659 544.396 427.395 543.496 427.395 542.536C427.395 541.288 427.815 540.232 428.655 539.368C429.495 538.504 430.539 537.844 431.787 537.388C433.035 536.932 434.271 536.704 435.495 536.704C436.599 536.704 437.571 536.92 438.411 537.352C439.275 537.784 439.947 538.396 440.427 539.188C440.931 539.956 441.183 540.892 441.183 541.996C441.183 543.148 440.883 544.192 440.283 545.128C439.707 546.04 438.903 546.76 437.871 547.288C436.863 547.816 435.723 548.08 434.451 548.08ZM454.47 548.368C452.886 548.2 451.47 547.924 450.222 547.54C448.974 547.156 447.99 546.58 447.27 545.812C446.55 545.044 446.19 543.952 446.19 542.536C446.19 541.288 446.406 540.124 446.838 539.044C447.294 537.94 448.266 536.872 449.754 535.84C450.762 535 452.022 533.992 453.534 532.816C455.07 531.616 456.69 530.332 458.394 528.964C460.098 527.572 461.718 526.192 463.254 524.824C464.358 523.864 465.318 522.904 466.134 521.944C466.974 520.96 467.622 519.988 468.078 519.028C468.558 518.044 468.798 517.12 468.798 516.256C468.798 514.312 468.258 512.956 467.178 512.188C466.098 511.396 464.634 511 462.786 511C460.986 511 459.414 511.288 458.07 511.864C456.75 512.44 455.646 513.148 454.758 513.988C454.158 514.54 453.57 515.128 452.994 515.752C452.442 516.352 451.89 516.868 451.338 517.3C450.786 517.708 450.222 517.912 449.646 517.912C448.806 517.912 448.026 517.624 447.306 517.048C446.61 516.472 446.262 515.644 446.262 514.564C446.262 513.124 446.682 511.696 447.522 510.28C448.362 508.864 449.55 507.58 451.086 506.428C452.622 505.276 454.422 504.352 456.486 503.656C458.55 502.96 460.806 502.612 463.254 502.612C465.414 502.612 467.442 502.816 469.338 503.224C471.234 503.632 472.902 504.304 474.342 505.24C475.806 506.176 476.946 507.412 477.762 508.948C478.578 510.484 478.986 512.368 478.986 514.6C478.986 516.112 478.734 517.528 478.23 518.848C477.726 520.168 477.03 521.44 476.142 522.664C475.254 523.888 474.21 525.1 473.01 526.3C472.194 527.116 471.282 527.98 470.274 528.892C469.29 529.78 468.27 530.668 467.214 531.556C466.182 532.42 465.186 533.236 464.226 534.004C463.29 534.772 462.462 535.42 461.742 535.948C461.118 536.404 460.65 536.836 460.338 537.244C460.026 537.628 459.87 538.036 459.87 538.468C459.87 538.732 460.05 538.936 460.41 539.08C460.794 539.224 461.274 539.32 461.85 539.368C462.426 539.392 463.014 539.404 463.614 539.404C464.646 539.404 465.894 539.308 467.358 539.116C468.846 538.9 470.322 538.696 471.786 538.504C473.274 538.288 474.498 538.18 475.458 538.18C476.658 538.18 477.63 538.456 478.374 539.008C479.118 539.56 479.49 540.34 479.49 541.348C479.49 542.692 479.142 543.808 478.446 544.696C477.774 545.56 476.79 546.256 475.494 546.784C474.198 547.312 472.602 547.708 470.706 547.972C468.834 548.236 466.698 548.416 464.298 548.512C462.762 548.56 461.13 548.584 459.402 548.584C457.674 548.608 456.03 548.536 454.47 548.368ZM494.544 548.224C493.728 548.224 492.948 548.092 492.204 547.828C491.484 547.564 490.884 547.132 490.404 546.532C489.948 545.908 489.72 545.056 489.72 543.976C489.72 541.624 489.924 539.44 490.332 537.424C490.74 535.384 491.292 533.5 491.988 531.772C492.684 530.044 493.476 528.46 494.364 527.02C495.252 525.58 496.188 524.272 497.172 523.096C498.348 521.632 499.476 520.312 500.556 519.136C501.66 517.936 502.656 516.868 503.544 515.932C504.432 514.972 505.128 514.108 505.632 513.34C506.16 512.548 506.424 511.828 506.424 511.18C506.424 510.292 505.992 509.704 505.128 509.416C504.288 509.104 503.124 508.948 501.636 508.948C499.788 508.948 497.904 509.044 495.984 509.236C494.088 509.404 492.348 509.584 490.764 509.776C489.18 509.944 487.956 510.028 487.092 510.028C485.988 510.028 485.124 509.872 484.5 509.56C483.876 509.248 483.564 508.504 483.564 507.328C483.564 506.32 484.056 505.42 485.04 504.628C486.024 503.836 487.368 503.188 489.072 502.684C490.2 502.396 491.544 502.156 493.104 501.964C494.688 501.772 496.308 501.628 497.964 501.532C499.62 501.436 501.168 501.388 502.608 501.388C504.72 501.388 506.652 501.496 508.404 501.712C510.156 501.904 511.656 502.276 512.904 502.828C514.152 503.38 515.112 504.196 515.784 505.276C516.48 506.332 516.828 507.724 516.828 509.452C516.828 510.748 516.48 512.08 515.784 513.448C515.112 514.816 514.212 516.22 513.084 517.66C511.98 519.076 510.804 520.528 509.556 522.016C508.308 523.48 507.12 524.992 505.992 526.552C504.456 528.568 503.1 530.956 501.924 533.716C500.748 536.476 500.004 539.632 499.692 543.184C499.524 544.24 499.236 545.152 498.828 545.92C498.444 546.664 497.904 547.228 497.208 547.612C496.512 548.02 495.624 548.224 494.544 548.224Z" fill="white"/>
<path d="M519 750C519 741.163 526.163 734 535 734H643C651.837 734 659 741.163 659 750V828C659 836.837 651.837 844 643 844H535C526.163 844 519 836.837 519 828V750Z" fill="#FECF35"/>
<path d="M565 777H613" stroke="#2286B9" stroke-width="13" stroke-linecap="round"/>
<path d="M565 801H613" stroke="#2286B9" stroke-width="13" stroke-linecap="round"/>
<path d="M363 750C363 741.163 370.163 734 379 734H487C495.837 734 503 741.163 503 750V828C503 836.837 495.837 844 487 844H379C370.163 844 363 836.837 363 828V750Z" fill="#2286B9"/>
<path d="M416.029 805.971L449.971 772.029" stroke="#FECF35" stroke-width="13" stroke-linecap="round"/>
<path d="M449.971 805.971L416.029 772.029" stroke="#FECF35" stroke-width="13" stroke-linecap="round"/>
<path d="M519 624C519 615.163 526.163 608 535 608H643C651.837 608 659 615.163 659 624V702C659 710.837 651.837 718 643 718H535C526.163 718 519 710.837 519 702V624Z" fill="#2286B9"/>
<path d="M565 663H613" stroke="#FECF35" stroke-width="13" stroke-linecap="round"/>
<path d="M363 624C363 615.163 370.163 608 379 608H487C495.837 608 503 615.163 503 624V702C503 710.837 495.837 718 487 718H379C370.163 718 363 710.837 363 702V624Z" fill="#2286B9"/>
<path d="M409 663H457" stroke="#FECF35" stroke-width="13" stroke-linecap="round"/>
<path d="M433 687L433 639" stroke="#FECF35" stroke-width="13" stroke-linecap="round"/>
<path d="M226.659 286.06C209.657 279.617 209.376 255.667 226.222 248.827L487.424 142.775C502.863 136.507 520.137 136.507 535.576 142.775L796.778 248.827C813.624 255.667 813.343 279.617 796.341 286.06L534.179 385.406C519.567 390.943 503.433 390.943 488.821 385.406L226.659 286.06Z" fill="#0A4D87"/>
<rect x="686" y="477" width="64" height="59" rx="24" fill="#FECF35"/>
<path d="M708.432 423.487C711.306 414.031 724.694 414.031 727.568 423.487L748.719 493.093C750.671 499.516 745.864 506 739.151 506H696.849C690.136 506 685.329 499.516 687.281 493.093L708.432 423.487Z" fill="#FECF35"/>
<rect x="698" y="394" width="40" height="36" rx="10" fill="#FECF35"/>
<path d="M718 325V392" stroke="#FECF35" stroke-width="25" stroke-linecap="round"/>
<path d="M511 247L718 319" stroke="#FECF35" stroke-width="25" stroke-linecap="round"/>
<path d="M686 438H336V350.314L491.393 407.856C503.484 412.334 516.779 412.336 528.873 407.864L684.662 350.255C685.125 350.084 685.572 349.886 686 349.666V438ZM686 328.335C683.11 326.846 679.628 326.529 676.338 327.745L520.549 385.354C513.83 387.839 506.444 387.837 499.727 385.35L344.167 327.747C341.427 326.733 338.554 326.783 336 327.688V325H686V328.335Z" fill="#094D85"/>
</svg>
