<svg width="1024" height="1024" viewBox="0 0 1024 1024" fill="none" xmlns="http://www.w3.org/2000/svg">
<rect width="1024" height="1024" fill="white"/>
<rect x="299" y="395" width="424" height="496" rx="50" fill="#094D85"/>
<rect x="363" y="459" width="296" height="100" rx="16" fill="#2286B9"/>
<path d="M411.768 531.656C410.616 531.656 409.644 531.368 408.852 530.792C408.06 530.24 407.664 529.244 407.664 527.804C407.664 527.42 407.664 526.964 407.664 526.436C407.688 525.908 407.7 525.368 407.7 524.816C407.7 524.24 407.7 523.676 407.7 523.124C407.7 522.572 407.688 522.08 407.664 521.648C407.568 520.568 407.256 519.8 406.728 519.344C406.224 518.864 405.108 518.588 403.38 518.516C401.676 518.468 399.972 518.396 398.268 518.3C396.588 518.18 395.124 517.988 393.876 517.724C392.676 517.484 391.728 516.98 391.032 516.212C390.36 515.42 389.868 514.424 389.556 513.224C389.268 512.024 389.124 510.704 389.124 509.264C389.124 508.16 389.232 506.924 389.448 505.556C389.664 504.164 389.94 502.748 390.276 501.308C390.612 499.868 390.96 498.488 391.32 497.168C391.704 495.848 392.064 494.696 392.4 493.712C392.808 492.464 393.252 491.372 393.732 490.436C394.236 489.5 394.824 488.768 395.496 488.24C396.168 487.688 396.984 487.412 397.944 487.412C398.544 487.412 399.06 487.52 399.492 487.736C399.924 487.928 400.248 488.24 400.464 488.672C400.68 489.08 400.788 489.632 400.788 490.328C400.788 491 400.692 491.816 400.5 492.776C400.332 493.736 400.116 494.78 399.852 495.908C399.588 497.012 399.312 498.152 399.024 499.328C398.76 500.504 398.532 501.668 398.34 502.82C398.172 503.972 398.088 505.076 398.088 506.132C398.088 507.116 398.148 507.908 398.268 508.508C398.388 509.084 398.604 509.516 398.916 509.804C399.228 510.092 399.648 510.32 400.176 510.488C400.824 510.68 401.676 510.812 402.732 510.884C403.788 510.932 404.82 510.956 405.828 510.956C406.932 510.956 407.688 510.764 408.096 510.38C408.528 509.996 408.744 509.276 408.744 508.22C408.744 507.836 408.756 507.236 408.78 506.42C408.804 505.604 408.84 504.656 408.888 503.576C408.936 502.472 408.984 501.32 409.032 500.12C409.104 498.896 409.164 497.708 409.212 496.556C409.284 495.404 409.344 494.36 409.392 493.424C409.464 492.488 409.512 491.756 409.536 491.228C409.728 489.812 410.112 488.612 410.688 487.628C411.264 486.62 412.116 486.116 413.244 486.116C414.036 486.116 414.684 486.284 415.188 486.62C415.692 486.932 416.1 487.472 416.412 488.24C416.724 489.008 416.952 490.088 417.096 491.48C417.144 492.008 417.192 492.68 417.24 493.496C417.288 494.288 417.312 495.176 417.312 496.16C417.312 497.12 417.312 498.152 417.312 499.256C417.336 500.36 417.336 501.488 417.312 502.64C417.312 503.792 417.312 504.956 417.312 506.132C417.312 507.284 417.312 508.412 417.312 509.516C417.312 510.14 417.444 510.596 417.708 510.884C417.996 511.172 418.428 511.316 419.004 511.316C419.724 511.316 420.408 511.292 421.056 511.244C421.728 511.196 422.34 511.22 422.892 511.316C423.54 511.484 424.056 511.76 424.44 512.144C424.824 512.504 425.016 513.14 425.016 514.052C425.016 515.348 424.74 516.224 424.188 516.68C423.66 517.112 422.94 517.412 422.028 517.58C421.5 517.628 420.876 517.724 420.156 517.868C419.46 517.988 418.836 518.108 418.284 518.228C417.66 518.348 417.228 518.636 416.988 519.092C416.772 519.524 416.628 520.268 416.556 521.324C416.484 521.996 416.412 522.752 416.34 523.592C416.292 524.408 416.232 525.212 416.16 526.004C416.088 526.796 415.992 527.48 415.872 528.056C415.608 529.28 415.14 530.18 414.468 530.756C413.82 531.356 412.92 531.656 411.768 531.656ZM434.451 531.08C432.939 531.08 431.655 530.816 430.599 530.288C429.543 529.76 428.739 529.076 428.187 528.236C427.659 527.396 427.395 526.496 427.395 525.536C427.395 524.288 427.815 523.232 428.655 522.368C429.495 521.504 430.539 520.844 431.787 520.388C433.035 519.932 434.271 519.704 435.495 519.704C436.599 519.704 437.571 519.92 438.411 520.352C439.275 520.784 439.947 521.396 440.427 522.188C440.931 522.956 441.183 523.892 441.183 524.996C441.183 526.148 440.883 527.192 440.283 528.128C439.707 529.04 438.903 529.76 437.871 530.288C436.863 530.816 435.723 531.08 434.451 531.08ZM454.47 531.368C452.886 531.2 451.47 530.924 450.222 530.54C448.974 530.156 447.99 529.58 447.27 528.812C446.55 528.044 446.19 526.952 446.19 525.536C446.19 524.288 446.406 523.124 446.838 522.044C447.294 520.94 448.266 519.872 449.754 518.84C450.762 518 452.022 516.992 453.534 515.816C455.07 514.616 456.69 513.332 458.394 511.964C460.098 510.572 461.718 509.192 463.254 507.824C464.358 506.864 465.318 505.904 466.134 504.944C466.974 503.96 467.622 502.988 468.078 502.028C468.558 501.044 468.798 500.12 468.798 499.256C468.798 497.312 468.258 495.956 467.178 495.188C466.098 494.396 464.634 494 462.786 494C460.986 494 459.414 494.288 458.07 494.864C456.75 495.44 455.646 496.148 454.758 496.988C454.158 497.54 453.57 498.128 452.994 498.752C452.442 499.352 451.89 499.868 451.338 500.3C450.786 500.708 450.222 500.912 449.646 500.912C448.806 500.912 448.026 500.624 447.306 500.048C446.61 499.472 446.262 498.644 446.262 497.564C446.262 496.124 446.682 494.696 447.522 493.28C448.362 491.864 449.55 490.58 451.086 489.428C452.622 488.276 454.422 487.352 456.486 486.656C458.55 485.96 460.806 485.612 463.254 485.612C465.414 485.612 467.442 485.816 469.338 486.224C471.234 486.632 472.902 487.304 474.342 488.24C475.806 489.176 476.946 490.412 477.762 491.948C478.578 493.484 478.986 495.368 478.986 497.6C478.986 499.112 478.734 500.528 478.23 501.848C477.726 503.168 477.03 504.44 476.142 505.664C475.254 506.888 474.21 508.1 473.01 509.3C472.194 510.116 471.282 510.98 470.274 511.892C469.29 512.78 468.27 513.668 467.214 514.556C466.182 515.42 465.186 516.236 464.226 517.004C463.29 517.772 462.462 518.42 461.742 518.948C461.118 519.404 460.65 519.836 460.338 520.244C460.026 520.628 459.87 521.036 459.87 521.468C459.87 521.732 460.05 521.936 460.41 522.08C460.794 522.224 461.274 522.32 461.85 522.368C462.426 522.392 463.014 522.404 463.614 522.404C464.646 522.404 465.894 522.308 467.358 522.116C468.846 521.9 470.322 521.696 471.786 521.504C473.274 521.288 474.498 521.18 475.458 521.18C476.658 521.18 477.63 521.456 478.374 522.008C479.118 522.56 479.49 523.34 479.49 524.348C479.49 525.692 479.142 526.808 478.446 527.696C477.774 528.56 476.79 529.256 475.494 529.784C474.198 530.312 472.602 530.708 470.706 530.972C468.834 531.236 466.698 531.416 464.298 531.512C462.762 531.56 461.13 531.584 459.402 531.584C457.674 531.608 456.03 531.536 454.47 531.368ZM494.544 531.224C493.728 531.224 492.948 531.092 492.204 530.828C491.484 530.564 490.884 530.132 490.404 529.532C489.948 528.908 489.72 528.056 489.72 526.976C489.72 524.624 489.924 522.44 490.332 520.424C490.74 518.384 491.292 516.5 491.988 514.772C492.684 513.044 493.476 511.46 494.364 510.02C495.252 508.58 496.188 507.272 497.172 506.096C498.348 504.632 499.476 503.312 500.556 502.136C501.66 500.936 502.656 499.868 503.544 498.932C504.432 497.972 505.128 497.108 505.632 496.34C506.16 495.548 506.424 494.828 506.424 494.18C506.424 493.292 505.992 492.704 505.128 492.416C504.288 492.104 503.124 491.948 501.636 491.948C499.788 491.948 497.904 492.044 495.984 492.236C494.088 492.404 492.348 492.584 490.764 492.776C489.18 492.944 487.956 493.028 487.092 493.028C485.988 493.028 485.124 492.872 484.5 492.56C483.876 492.248 483.564 491.504 483.564 490.328C483.564 489.32 484.056 488.42 485.04 487.628C486.024 486.836 487.368 486.188 489.072 485.684C490.2 485.396 491.544 485.156 493.104 484.964C494.688 484.772 496.308 484.628 497.964 484.532C499.62 484.436 501.168 484.388 502.608 484.388C504.72 484.388 506.652 484.496 508.404 484.712C510.156 484.904 511.656 485.276 512.904 485.828C514.152 486.38 515.112 487.196 515.784 488.276C516.48 489.332 516.828 490.724 516.828 492.452C516.828 493.748 516.48 495.08 515.784 496.448C515.112 497.816 514.212 499.22 513.084 500.66C511.98 502.076 510.804 503.528 509.556 505.016C508.308 506.48 507.12 507.992 505.992 509.552C504.456 511.568 503.1 513.956 501.924 516.716C500.748 519.476 500.004 522.632 499.692 526.184C499.524 527.24 499.236 528.152 498.828 528.92C498.444 529.664 497.904 530.228 497.208 530.612C496.512 531.02 495.624 531.224 494.544 531.224Z" fill="white"/>
<path d="M519 733C519 724.163 526.163 717 535 717H643C651.837 717 659 724.163 659 733V811C659 819.837 651.837 827 643 827H535C526.163 827 519 819.837 519 811V733Z" fill="#FECF35"/>
<path d="M565 760H613" stroke="#2286B9" stroke-width="13" stroke-linecap="round"/>
<path d="M565 784H613" stroke="#2286B9" stroke-width="13" stroke-linecap="round"/>
<path d="M363 733C363 724.163 370.163 717 379 717H487C495.837 717 503 724.163 503 733V811C503 819.837 495.837 827 487 827H379C370.163 827 363 819.837 363 811V733Z" fill="#2286B9"/>
<path d="M416.029 788.971L449.971 755.029" stroke="#FECF35" stroke-width="13" stroke-linecap="round"/>
<path d="M449.971 788.971L416.029 755.029" stroke="#FECF35" stroke-width="13" stroke-linecap="round"/>
<path d="M519 607C519 598.163 526.163 591 535 591H643C651.837 591 659 598.163 659 607V685C659 693.837 651.837 701 643 701H535C526.163 701 519 693.837 519 685V607Z" fill="#2286B9"/>
<path d="M565 646H613" stroke="#FECF35" stroke-width="13" stroke-linecap="round"/>
<path d="M363 607C363 598.163 370.163 591 379 591H487C495.837 591 503 598.163 503 607V685C503 693.837 495.837 701 487 701H379C370.163 701 363 693.837 363 685V607Z" fill="#2286B9"/>
<path d="M409 646H457" stroke="#FECF35" stroke-width="13" stroke-linecap="round"/>
<path d="M433 670L433 622" stroke="#FECF35" stroke-width="13" stroke-linecap="round"/>
<rect x="336" y="319" width="350" height="119" fill="#094D85"/>
<path d="M226.659 286.06C209.657 279.617 209.376 255.667 226.222 248.827L487.424 142.775C502.863 136.507 520.137 136.507 535.576 142.775L796.778 248.827C813.624 255.667 813.343 279.617 796.341 286.06L534.179 385.406C519.567 390.943 503.433 390.943 488.821 385.406L226.659 286.06Z" fill="#0A4D87"/>
<rect x="686" y="477" width="64" height="59" rx="24" fill="#FECF35"/>
<path d="M708.432 423.487C711.306 414.031 724.694 414.031 727.568 423.487L748.719 493.093C750.671 499.516 745.864 506 739.151 506H696.849C690.136 506 685.329 499.516 687.281 493.093L708.432 423.487Z" fill="#FECF35"/>
<rect x="698" y="394" width="40" height="36" rx="10" fill="#FECF35"/>
<path d="M718 325V392" stroke="#FECF35" stroke-width="25" stroke-linecap="round"/>
<path d="M511 247L718 319" stroke="#FECF35" stroke-width="25" stroke-linecap="round"/>
<path d="M332 339L498.495 391.088C506.638 393.635 515.364 393.642 523.512 391.107L691 339" stroke="white" stroke-width="24" stroke-linecap="round"/>
</svg>
